<svg width="58" height="59" viewBox="0 0 58 59" fill="none" xmlns="http://www.w3.org/2000/svg">
<g filter="url(#filter0_d_4_8268)">
<path d="M27.9986 33.7131H24.9945C23.5258 33.7131 22.3241 34.9148 22.3241 36.3835V36.7173H20.989C20.4415 36.7173 19.9876 37.1712 19.9876 37.7186C19.9876 38.2661 20.4415 38.72 20.989 38.72H37.011C37.5585 38.72 38.0124 38.2661 38.0124 37.7186C38.0124 37.1712 37.5585 36.7173 37.011 36.7173H35.6759V36.3835C35.6759 34.9148 34.4742 33.7131 33.0055 33.7131H30.0014V30.6556C29.6676 30.6956 29.3338 30.709 29 30.709C28.6662 30.709 28.3324 30.6956 27.9986 30.6556V33.7131Z" fill="#FE6712"/>
<path d="M37.6519 24.8877C38.5331 24.5539 39.3076 24.0064 39.9217 23.3923C41.1634 22.017 41.9779 20.3748 41.9779 18.4521C41.9779 16.5295 40.4692 15.0207 38.5465 15.0207H37.7988C36.9309 13.2449 35.1151 12.0166 33.0055 12.0166H24.9945C22.8849 12.0166 21.0691 13.2449 20.2012 15.0207H19.4535C17.5308 15.0207 16.0221 16.5295 16.0221 18.4521C16.0221 20.3748 16.8366 22.017 18.0783 23.3923C18.6925 24.0064 19.4669 24.5539 20.3481 24.8877C21.7366 28.3057 25.0746 30.709 29 30.709C32.9254 30.709 36.2634 28.3057 37.6519 24.8877ZM32.7919 20.6285L31.9641 21.6432C31.8306 21.7901 31.7371 22.0838 31.7505 22.2841L31.8306 23.5925C31.884 24.3936 31.3099 24.8076 30.5622 24.5138L29.3471 24.0331C29.1602 23.9664 28.8398 23.9664 28.6529 24.0331L27.4378 24.5138C26.6901 24.8076 26.116 24.3936 26.1694 23.5925L26.2495 22.2841C26.2629 22.0838 26.1694 21.7901 26.0359 21.6432L25.2081 20.6285C24.6874 20.0143 24.9144 19.3333 25.6888 19.1331L26.9572 18.8126C27.1575 18.7592 27.3978 18.5723 27.5046 18.3987L28.2122 17.3039C28.6529 16.6229 29.3471 16.6229 29.7878 17.3039L30.4954 18.3987C30.6022 18.5723 30.8425 18.7592 31.0428 18.8126L32.3112 19.1331C33.0856 19.3333 33.3126 20.0143 32.7919 20.6285Z" fill="#FE6712"/>
</g>
<defs>
<filter id="filter0_d_4_8268" x="-3.0442" y="-2.67043" width="64.0884" height="64.0884" filterUnits="userSpaceOnUse" color-interpolation-filters="sRGB">
<feFlood flood-opacity="0" result="BackgroundImageFix"/>
<feColorMatrix in="SourceAlpha" type="matrix" values="0 0 0 0 0 0 0 0 0 0 0 0 0 0 0 0 0 0 127 0" result="hardAlpha"/>
<feOffset dy="4"/>
<feGaussianBlur stdDeviation="8"/>
<feComposite in2="hardAlpha" operator="out"/>
<feColorMatrix type="matrix" values="0 0 0 0 0.970937 0 0 0 0 0.598163 0 0 0 0 0.254063 0 0 0 0.48 0"/>
<feBlend mode="normal" in2="BackgroundImageFix" result="effect1_dropShadow_4_8268"/>
<feBlend mode="normal" in="SourceGraphic" in2="effect1_dropShadow_4_8268" result="shape"/>
</filter>
</defs>
</svg>
