<svg width="55" height="63" viewBox="0 0 55 63" fill="none" xmlns="http://www.w3.org/2000/svg">
<g filter="url(#filter0_d_4_8255)">
<path d="M38.587 26.1926C38.5493 26.0288 38.4716 25.877 38.3607 25.7506C38.2499 25.6243 38.1095 25.5274 37.952 25.4687L30.6362 22.7252L32.4906 13.4154C32.5332 13.1998 32.5057 12.9761 32.412 12.7773C32.3182 12.5784 32.1633 12.4148 31.9698 12.3105C31.7745 12.2065 31.5502 12.1701 31.332 12.2069C31.1138 12.2436 30.9138 12.3515 30.7632 12.5137L16.5382 27.7548C16.4216 27.8758 16.3373 28.024 16.2929 28.186C16.2485 28.348 16.2455 28.5185 16.2842 28.682C16.3239 28.8449 16.4024 28.9957 16.513 29.1218C16.6235 29.2478 16.7629 29.3453 16.9192 29.406L24.235 32.1494L22.3806 41.4592C22.338 41.6748 22.3655 41.8985 22.4592 42.0973C22.5529 42.2962 22.7079 42.4598 22.9014 42.5641C23.0472 42.6377 23.208 42.6768 23.3713 42.6785C23.5093 42.679 23.646 42.6511 23.7727 42.5965C23.8995 42.5419 24.0136 42.4617 24.1079 42.3609L38.333 27.1198C38.4496 26.9988 38.5339 26.8506 38.5783 26.6886C38.6227 26.5266 38.6257 26.3561 38.587 26.1926Z" fill="#6366F1"/>
</g>
<defs>
<filter id="filter0_d_4_8255" x="0" y="0" width="54.8712" height="63" filterUnits="userSpaceOnUse" color-interpolation-filters="sRGB">
<feFlood flood-opacity="0" result="BackgroundImageFix"/>
<feColorMatrix in="SourceAlpha" type="matrix" values="0 0 0 0 0 0 0 0 0 0 0 0 0 0 0 0 0 0 127 0" result="hardAlpha"/>
<feOffset dy="4"/>
<feGaussianBlur stdDeviation="8"/>
<feComposite in2="hardAlpha" operator="out"/>
<feColorMatrix type="matrix" values="0 0 0 0 0.354425 0 0 0 0 0.254063 0 0 0 0 0.970937 0 0 0 0.48 0"/>
<feBlend mode="normal" in2="BackgroundImageFix" result="effect1_dropShadow_4_8255"/>
<feBlend mode="normal" in="SourceGraphic" in2="effect1_dropShadow_4_8255" result="shape"/>
</filter>
</defs>
</svg>
